<?xml version="1.0" standalone="no"?>
<!DOCTYPE svg PUBLIC "-//W3C//DTD SVG 20010904//EN"
 "http://www.w3.org/TR/2001/REC-SVG-20010904/DTD/svg10.dtd">
<svg version="1.0" xmlns="http://www.w3.org/2000/svg"
 width="1000.000000pt" height="875.000000pt" viewBox="0 0 1000.000000 875.000000"
 preserveAspectRatio="xMidYMid meet">
<metadata>
Created by potrace 1.15, written by Peter Selinger 2001-2017
</metadata>
<g transform="translate(0.000000,875.000000) scale(0.100000,-0.100000)"
fill="#000000" stroke="none">
<path d="M6731 8088 c-508 -26 -1016 -221 -1416 -543 -108 -87 -171 -149 -287
-281 -312 -355 -510 -745 -597 -1179 -29 -145 -40 -245 -50 -470 -13 -263 -33
-360 -113 -535 -169 -366 -500 -629 -897 -710 -137 -28 -355 -28 -492 0 -364
74 -656 286 -849 616 l-40 69 0 -851 0 -851 101 -47 c364 -169 796 -248 1201
-218 247 18 419 53 643 129 512 175 961 521 1267 978 140 209 278 518 338 754
52 208 68 329 80 614 14 340 64 511 216 739 180 271 466 461 793 528 137 28
355 28 492 0 498 -102 877 -479 985 -982 25 -115 25 -361 1 -478 -56 -262
-173 -477 -361 -658 -143 -138 -305 -236 -481 -292 -38 -12 -83 -28 -100 -36
-85 -40 -372 -47 -536 -14 -251 51 -469 169 -651 353 -74 74 -179 218 -209
285 -8 18 -17 32 -20 32 -7 0 -91 -201 -139 -330 -99 -266 -252 -535 -433
-760 -92 -114 -320 -336 -434 -423 -92 -70 -250 -174 -332 -219 l-31 -17 0
-1331 0 -1330 620 0 620 0 0 1395 c0 890 3 1395 10 1395 5 0 38 -16 72 -35
237 -130 553 -230 855 -272 158 -21 478 -21 636 0 486 67 909 253 1285 565
405 336 705 823 826 1342 49 210 60 318 60 580 0 222 -3 260 -28 403 -122 706
-508 1297 -1097 1684 -443 291 -959 428 -1508 401z"/>
<path d="M2830 8064 c-566 -69 -1074 -318 -1477 -725 -135 -137 -198 -214
-308 -379 -204 -305 -320 -606 -392 -1020 -15 -87 -17 -324 -20 -2702 l-3
-2608 620 0 620 0 0 2408 c1 1324 2 2477 4 2562 4 221 40 371 133 555 62 125
141 230 247 333 241 233 536 352 871 352 333 0 629 -119 868 -349 115 -111
193 -218 275 -375 15 -29 15 -29 38 75 88 392 267 768 511 1072 l71 89 -86 80
c-370 344 -875 573 -1392 632 -163 19 -423 19 -580 0z"/>
</g>
</svg>
