<svg height="514pt" viewBox="-22 0 514 514.60789" width="514pt" xmlns="http://www.w3.org/2000/svg" xmlns:xlink="http://www.w3.org/1999/xlink"><linearGradient id="a"><stop offset="0" stop-color="#00efd1"/><stop offset="1" stop-color="#00acea"/></linearGradient><linearGradient id="b" gradientUnits="userSpaceOnUse" x1="112.304824" x2="112.304824" xlink:href="#a" y1="3.859549" y2="506.343549"/><linearGradient id="c" gradientUnits="userSpaceOnUse" x1="235.304824" x2="235.304824" xlink:href="#a" y1="3.859549" y2="506.343549"/><linearGradient id="d" gradientUnits="userSpaceOnUse" x1="235.262824" x2="235.262824" xlink:href="#a" y1="3.859549" y2="506.343549"/><linearGradient id="e" gradientUnits="userSpaceOnUse" x1="327.470824" x2="327.470824" xlink:href="#a" y1="3.859549" y2="506.343549"/><linearGradient id="f" gradientUnits="userSpaceOnUse" x1="327.471824" x2="327.471824" xlink:href="#a" y1="3.859549" y2="506.343549"/><path d="m161.304688 139.214844c0-5.523438-4.476563-10-10-10h-78c-5.523438 0-10 4.476562-10 10v58c0 5.523437 4.476562 10 10 10h78c5.523437 0 10-4.476563 10-10zm-78 10h58v38h-58zm0 0" fill="url(#b)"/><path d="m284.304688 139.214844c0-5.523438-4.476563-10-10-10h-78c-5.523438 0-10 4.476562-10 10v58c0 5.523437 4.476562 10 10 10h78c5.523437 0 10-4.476563 10-10zm-78 10h58v38h-58zm0 0" fill="url(#c)"/><path d="m161.304688 247.214844c0-5.523438-4.476563-10-10-10h-78c-5.523438 0-10 4.476562-10 10v58c0 5.523437 4.476562 10 10 10h78c5.523437 0 10-4.476563 10-10zm-78 10h58v38h-58zm0 0" fill="url(#b)"/><path d="m348.304688 230.054688v-106.332032c.097656-3.25-1.429688-6.335937-4.070313-8.230468l-164.710937-113.722657c-3.402344-2.363281-7.921876-2.359375-11.320313.015625l-163.714844 113.722656c-2.664062 1.882813-4.226562 4.957032-4.183593 8.214844v323.136719c0 5.519531 4.3125 10.355469 9.832031 10.355469h202.753906c26.953125 36.203125 69.464844 57.492187 114.597656 57.394531 78.839844 0 142.734375-64.234375 142.734375-143.074219 0-71.597656-52.917968-131.15625-121.917968-141.480468zm-328-101.101563 153.515624-106.792969 154.484376 106.8125v99.507813s-.625-.015625-1.066407-.015625c-17.058593.027344-33.976562 3.136718-49.933593 9.175781-1.011719-.320313-2.070313-.464844-3.132813-.425781h-77.65625c-2.648437-.0625-5.210937.929687-7.128906 2.757812-1.914063 1.828125-3.023438 4.34375-3.082031 6.992188v58.113281c.050781 5.386719 4.316406 9.789063 9.699218 10-3.671875 8.761719-6.507812 17.84375-8.476562 27.136719h-47.152344c-16.566406-.007813-30.015625 13.390625-30.070312 29.957031v65.042969h-90zm186.359374 166.261719h-.359374v-38h35.613281c-14.117188 10.246094-26.09375 23.15625-35.253907 38zm-76.359374 142v-65.042969c.042968-5.527344 4.546874-9.976563 10.070312-9.957031h44.441406c-.199218 3-.308594 6.316406-.308594 9.433594.019532 22.800781 5.457032 45.273437 15.863282 65.566406zm197.183593 57.214844c-67.917969 0-122.980469-55.0625-122.980469-122.984376 0-67.917968 55.0625-122.980468 122.980469-122.980468 67.921875 0 122.984375 55.0625 122.984375 122.980468-.078125 67.890626-55.09375 122.90625-122.984375 122.984376zm0 0" fill="url(#d)"/><path d="m328.496094 277.214844h-.015625c-21.347657.035156-41.75 8.789062-56.488281 24.230468-30.761719 31.460938-31.1875 82.523438-1.023438 113.960938l48.105469 57.339844c1.910156 2.238281 4.71875 3.507812 7.660156 3.46875h.007813c2.9375.046875 5.742187-1.210938 7.65625-3.441406l48.824218-58.097657c30.574219-31.574219 30.828125-82.632812.496094-113.953125-14.425781-15.046875-34.378906-23.539062-55.222656-23.507812zm40.15625 123.828125c-.179688.179687-.347656.367187-.511719.5625l-41.390625 49.308593-40.671875-48.574218c-.15625-.183594-.316406-.363282-.484375-.535156-22.960938-23.699219-22.648438-62.492188.726562-86.402344 10.984376-11.558594 26.214844-18.128906 42.160157-18.1875h.011719c15.429687 0 30.191406 6.304687 40.859374 17.457031 22.957032 23.707031 22.644532 62.496094-.699218 86.371094zm0 0" fill="url(#e)"/><path d="m327.472656 309.683594c-24.367187 0-44.121094 19.753906-44.121094 44.121094 0 24.371093 19.753907 44.125 44.121094 44.125 24.367188 0 44.121094-19.753907 44.121094-44.125-.027344-24.355469-19.765625-44.09375-44.121094-44.121094zm0 68.246094c-13.324218 0-24.121094-10.800782-24.121094-24.125 0-13.320313 10.796876-24.121094 24.121094-24.121094 13.320313 0 24.121094 10.800781 24.121094 24.121094-.015625 13.316406-10.804688 24.109374-24.121094 24.125zm0 0" fill="url(#f)"/></svg>